<svg width="1207" height="208" viewBox="0 0 1207 208" fill="none" xmlns="http://www.w3.org/2000/svg">
<path d="M182.807 60.9345C200.609 60.9345 214.73 66.3338 225.171 77.1323C235.784 87.9308 241.09 102.928 241.09 122.126V205.943H197.442V128.04C197.442 118.784 194.96 111.67 189.996 106.7C185.203 101.557 178.528 98.9864 169.97 98.9864C161.412 98.9864 154.65 101.557 149.686 106.7C144.893 111.67 142.497 118.784 142.497 128.04V205.943H98.8495V128.04C98.8495 118.784 96.3673 111.67 91.4037 106.7C86.6107 101.557 79.9354 98.9864 71.377 98.9864C62.8187 98.9864 56.0575 101.557 51.0936 106.7C46.3009 111.67 43.9046 118.784 43.9046 128.04V205.943H0V62.4771H43.9046V80.4747C48.3549 74.4755 54.1747 69.7618 61.3637 66.3338C68.5528 62.7343 76.6833 60.9345 85.7552 60.9345C96.5387 60.9345 106.124 63.2485 114.511 67.8764C123.069 72.5043 129.745 79.1035 134.538 87.6737C139.502 79.789 146.263 73.3613 154.821 68.3906C163.38 63.4199 172.709 60.9345 182.807 60.9345ZM263.067 133.953C263.067 119.212 265.806 106.271 271.283 95.1298C276.931 83.9887 284.548 75.4182 294.134 69.419C303.719 63.4199 314.417 60.4203 326.228 60.4203C336.326 60.4203 345.142 62.4771 352.673 66.5909C360.376 70.7046 366.281 76.1038 370.389 82.7886V62.4771H414.294V205.943H370.389V185.632C366.109 192.316 360.119 197.716 352.416 201.829C344.885 205.943 336.069 208 325.971 208C314.332 208 303.719 205 294.134 199.001C284.548 192.831 276.931 184.174 271.283 173.033C265.806 161.721 263.067 148.694 263.067 133.953ZM370.389 134.21C370.389 123.24 367.308 114.585 361.146 108.242C355.155 101.9 347.795 98.7293 339.065 98.7293C330.336 98.7293 322.89 101.9 316.728 108.242C310.737 114.413 307.741 122.983 307.741 133.953C307.741 144.923 310.737 153.665 316.728 160.178C322.89 166.52 330.336 169.691 339.065 169.691C347.795 169.691 355.155 166.52 361.146 160.178C367.308 153.836 370.389 145.18 370.389 134.21ZM489.961 15.6836V205.943H446.056V15.6836H489.961ZM513.049 133.953C513.049 119.212 515.788 106.271 521.265 95.1298C526.913 83.9887 534.531 75.4182 544.116 69.419C553.701 63.4199 564.399 60.4203 576.21 60.4203C585.624 60.4203 594.182 62.3915 601.885 66.3338C609.759 70.276 615.921 75.5896 620.371 82.2744V15.6836H664.276V205.943H620.371V185.375C616.263 192.231 610.358 197.716 602.655 201.829C595.124 205.943 586.308 208 576.21 208C564.399 208 553.701 205 544.116 199.001C534.531 192.831 526.913 184.174 521.265 173.033C515.788 161.721 513.049 148.694 513.049 133.953ZM620.371 134.21C620.371 123.24 617.29 114.585 611.128 108.242C605.137 101.9 597.777 98.7293 589.047 98.7293C580.318 98.7293 572.872 101.9 566.71 108.242C560.719 114.413 557.724 122.983 557.724 133.953C557.724 144.923 560.719 153.665 566.71 160.178C572.872 166.52 580.318 169.691 589.047 169.691C597.777 169.691 605.137 166.52 611.128 160.178C617.29 153.836 620.371 145.18 620.371 134.21ZM718.119 47.5649C710.416 47.5649 704.084 45.3366 699.119 40.8801C694.327 36.2522 691.93 30.5958 691.93 23.911C691.93 17.0548 694.327 11.3984 699.119 6.9419C704.084 2.31397 710.416 0 718.119 0C725.651 0 731.813 2.31397 736.605 6.9419C741.569 11.3984 744.051 17.0548 744.051 23.911C744.051 30.5958 741.569 36.2522 736.605 40.8801C731.813 45.3366 725.651 47.5649 718.119 47.5649ZM739.943 62.4771V205.943H696.038V62.4771H739.943ZM836.203 164.806L867.275 62.4771H913.999L863.166 205.943H808.989L758.152 62.4771H805.138L836.203 164.806ZM1067.53 131.896C1067.53 136.01 1067.28 140.295 1066.76 144.752H967.4C968.081 153.665 970.911 160.521 975.874 165.32C981.009 169.948 987.252 172.262 994.618 172.262C1005.57 172.262 1013.19 167.634 1017.46 158.378H1064.2C1061.8 167.806 1057.44 176.29 1051.1 183.832C1044.93 191.373 1037.15 197.287 1027.73 201.572C1018.32 205.858 1007.79 208 996.152 208C982.117 208 969.623 205 958.672 199.001C947.713 193.002 939.158 184.432 932.997 173.29C926.829 162.149 923.753 149.122 923.753 134.21C923.753 119.298 926.747 106.271 932.735 95.1298C938.903 83.9887 947.459 75.4182 958.41 69.419C969.369 63.4199 981.952 60.4203 996.152 60.4203C1010.02 60.4203 1022.34 63.3341 1033.13 69.1619C1043.91 74.9897 1052.3 83.3029 1058.29 94.1014C1064.45 104.9 1067.53 117.498 1067.53 131.896ZM1022.6 120.326C1022.6 112.785 1020.03 106.785 1014.9 102.329C1009.76 97.8726 1003.35 95.644 995.643 95.644C988.285 95.644 982.034 97.7863 976.899 102.072C971.937 106.357 968.852 112.441 967.655 120.326H1022.6ZM1148.98 208C1136.48 208 1125.36 205.858 1115.6 201.572C1105.84 197.287 1098.14 191.46 1092.5 184.089C1086.84 176.547 1083.68 168.148 1082.99 158.892H1126.38C1126.9 163.863 1129.2 167.891 1133.31 170.977C1137.42 174.062 1142.48 175.604 1148.46 175.604C1153.94 175.604 1158.14 174.576 1161.05 172.519C1164.12 170.291 1165.67 167.462 1165.67 164.035C1165.67 159.921 1163.52 156.921 1159.25 155.036C1154.97 152.979 1148.04 150.75 1138.45 148.351C1128.18 145.952 1119.62 143.466 1112.77 140.895C1105.93 138.152 1100.03 133.953 1095.06 128.297C1090.09 122.469 1087.61 114.67 1087.61 104.9C1087.61 96.6724 1089.84 89.2163 1094.29 82.5315C1098.91 75.6753 1105.59 70.276 1114.32 66.3338C1123.22 62.3915 1133.74 60.4203 1145.9 60.4203C1163.87 60.4203 1177.99 64.8768 1188.26 73.7899C1198.7 82.7032 1204.7 94.5301 1206.23 109.271H1165.67C1164.98 104.3 1162.75 100.357 1158.99 97.4438C1155.4 94.5302 1150.6 93.0729 1144.61 93.0729C1139.47 93.0729 1135.54 94.1014 1132.8 96.1582C1130.06 98.0434 1128.69 100.701 1128.69 104.129C1128.69 108.242 1130.84 111.328 1135.11 113.384C1139.56 115.441 1146.41 117.498 1155.65 119.555C1166.26 122.298 1174.91 125.04 1181.59 127.782C1188.26 130.354 1194.08 134.639 1199.04 140.638C1204.18 146.466 1206.84 154.35 1207 164.292C1207 172.691 1204.6 180.232 1199.81 186.917C1195.2 193.43 1188.43 198.572 1179.53 202.344C1170.8 206.115 1160.62 208 1148.98 208Z" fill="#1F1E23"/>
</svg>
